# xmcd
#
# Track frame offsets:
# 150
# 15810
# 34648
# 48768
# 62670
# 78955
# 88388
# 103820
# 114620
# 131025
# 145613
# 161260
# 176023
# 191345
#
# Disc length: 2737 seconds
#
#
# Revision: 0
# Processed by: cddbd v1.4PL0 Copyright (c) Steve Scherf et al.
# Submitted via: FreeRIP 2.35 
#
DISCID=aa0aaf0e
DTITLE=Edith Piaf - Hymne A L'Amour
DYEAR=1900
DGENRE=Chanson
TTITLE0=Hymne A L'Amour
TTITLE1=Les Trois Cloches
TTITLE2=La Fete Continue
TTITLE3=Le chevalier De Paris
TTITLE4=Les Croix
TTITLE5=La Goualante Du Pauvre Jean
TTITLE6=Sous Le Ciel De Paris
TTITLE7=Non, Je Ne Regrette Rien
TTITLE8=L'Accordeoniste
TTITLE9=Plus Bleu Que Tes Yeux
TTITLE10=Monsieur Lenoble
TTITLE11=Celine
TTITLE12=Pour Moi Tout' Seule
TTITLE13=La Vie En Rose
EXTD=Big Artist Series (Japan]\nGRN-37
EXTT0=
EXTT1=
EXTT2=
EXTT3=
EXTT4=
EXTT5=
EXTT6=
EXTT7=
EXTT8=
EXTT9=
EXTT10=
EXTT11=
EXTT12=
EXTT13=
PLAYORDER=
